<svg width="243" height="50" viewBox="0 0 243 50" fill="none" xmlns="http://www.w3.org/2000/svg">
<path d="M236.991 13.8882C258.217 12.2229 217.812 9.44594 199.4 8.47479C180.986 7.50364 167.944 5.69787 206.304 6.3921C244.663 6.94787 240.828 4.03249 182.521 1.39596C123.958 -1.37903 27.8037 0.840191 27.8037 0.840191C-13.3685 0.701729 4.27696 20.9671 1.20826 26.9344C-1.86044 32.9036 2.48732 37.6228 6.57892 41.3689C10.6705 44.9785 5.556 45.8112 21.1556 49.0035C36.7553 52.1958 68.2091 46.7824 162.063 45.8112C251.313 44.8401 209.373 40.9536 188.915 39.842C168.455 38.7324 177.407 37.7612 211.674 36.7882C245.942 35.9555 207.071 33.8747 210.395 31.6536C213.976 29.4324 256.171 29.4324 223.949 26.7959C217.812 26.2401 237.247 23.0478 221.903 22.494C206.56 21.9382 211.674 20.6882 231.366 20.2728C250.801 19.8555 237.759 17.0805 226.762 16.6632C216.022 16.3863 215.766 15.5536 236.991 13.8882Z" fill="#EE6A61"/>
</svg>
